<?xml version="1.0" encoding="utf-8"?>
<!-- Generator: Adobe Illustrator 24.3.0, SVG Export Plug-In . SVG Version: 6.00 Build 0)  -->
<svg version="1.1" id="IconChangeColor" xmlns="http://www.w3.org/2000/svg" xmlns:xlink="http://www.w3.org/1999/xlink" x="0px"
	 y="0px" viewBox="0 0 79 127" style="enable-background:new 0 0 79 127;" xml:space="preserve">
<style type="text/css">
	.st0{fill:#FFFFFF;stroke:#2D6D95;stroke-width:7.5;stroke-miterlimit:50;}
</style>
<path id="mainIconPathAttribute" class="st0" d="M5.7,35.3c-0.1,1.6,1.2,3,2.8,3.1c0.1,0,0.1,0,0.2,0H19c1.7,0,3.1-1.4,3.3-3.1
	c1.1-8.2,6.8-14.2,16.8-14.2c8.6,0,16.4,4.3,16.4,14.6c0,7.9-4.7,11.6-12.1,17.1C35.1,59,28.4,66.1,28.9,77.7l0,2.7
	c0,1.7,1.4,3.1,3.1,3.1h10.1c1.7,0,3.1-1.4,3.1-3.1V79c0-9,3.4-11.6,12.6-18.6c7.6-5.8,15.5-12.2,15.5-25.7c0-18.9-15.9-28-33.4-28
	C24.2,6.8,6.9,14.1,5.7,35.3L5.7,35.3z M25.2,107.4c0,6.7,5.3,11.6,12.6,11.6c7.6,0,12.8-4.9,12.8-11.6c0-6.9-5.2-11.7-12.9-11.7
	C30.5,95.6,25.2,100.5,25.2,107.4z"/>
</svg>
